<svg id="Layer_1" data-name="Layer 1" xmlns="http://www.w3.org/2000/svg" viewBox="0 0 150.24 34"><path d="M33,26.51a1,1,0,0,0-1,1V32H27.5a1,1,0,0,0,0,2H33a1,1,0,0,0,1-1V27.51A1,1,0,0,0,33,26.51Z"/><path d="M6.5,32H2V27.51a1,1,0,0,0-2,0V33a1,1,0,0,0,1,1H6.5a1,1,0,0,0,0-2Z"/><path d="M6.5,0H1A1,1,0,0,0,0,1V6.5a1,1,0,0,0,2,0V2H6.5a1,1,0,0,0,0-2Z"/><path d="M33,0H27.5a1,1,0,0,0,0,2H32V6.5a1,1,0,0,0,2,0V1A1,1,0,0,0,33,0Z"/><path d="M12.5,5.7H7.1A1.4,1.4,0,0,0,5.7,7.1v5.4a1.4,1.4,0,0,0,1.4,1.4h5.4a1.4,1.4,0,0,0,1.4-1.4V7.1A1.4,1.4,0,0,0,12.5,5.7Z"/><path d="M28.3,12.5V7.1a1.4,1.4,0,0,0-1.4-1.4H21.5a1.4,1.4,0,0,0-1.4,1.4v5.4a1.4,1.4,0,0,0,1.4,1.4h5.4A1.4,1.4,0,0,0,28.3,12.5Z"/><path d="M12.5,20.1H7.1a1.4,1.4,0,0,0-1.4,1.4v5.4a1.4,1.4,0,0,0,1.4,1.4h5.4a1.4,1.4,0,0,0,1.4-1.4V21.5A1.4,1.4,0,0,0,12.5,20.1Z"/><path d="M25.55,20.1h-2.7a1,1,0,0,0-1,.95v2.7a1,1,0,0,0,1,.95h2.7a1,1,0,0,0,.95-.95v-2.7A1,1,0,0,0,25.55,20.1Z"/><path d="M46.18,19.61V26.5H43.86V7.41h6.38c4.48,0,6.41,2.61,6.41,6s-1.93,6.16-6.37,6.16Zm0-2.06h4.1c3.06,0,4.1-1.75,4.1-4.1s-1-4-4.14-4H46.18Z"/><path d="M67.35,24.57h-.11A4.5,4.5,0,0,1,63,26.84c-2.72,0-4.88-1.6-4.88-4.4,0-3.24,2.87-3.88,5.55-4.21,2-.27,3.69-.19,3.69-1.12v0c0-2.39-1.26-3.13-3-3.13A3.92,3.92,0,0,0,60.6,16.1l-2.08-.75C59.63,12.74,62.1,12,64.26,12c1.83,0,5.29.52,5.29,5.07V26.5h-2.2Zm0-5.26c-.37.44-2.87.71-3.8.82-1.71.22-3.24.74-3.24,2.42,0,1.53,1.26,2.31,3,2.31,2.61,0,4-1.75,4-3.54Z"/><path d="M75.93,26.6,70.61,12.18H73L76.94,23.6h.16l4-11.42h2.38L77.29,28.82c-.82,2.2-2.24,3.24-4.22,3.24a4.36,4.36,0,0,1-1.6-.26L72,29.86c1.57.37,2.57.19,3.39-1.94Z"/><path d="M85.6,26.5V7.41h6.68c4,0,5.85,2.28,5.85,5.07a3.81,3.81,0,0,1-3.09,4v.18c1.75.11,3.84,1.75,3.84,4.77S97,26.5,92.5,26.5Zm2.31-10.7H92.2c2.09,0,3.73-1.3,3.73-3.32,0-1.68-1.12-3-3.65-3H87.91Zm4.7,2h-4.7v6.63H92.5c3,0,4.18-1.34,4.18-3C96.68,19.49,95.11,17.82,92.61,17.82Z"/><path d="M105.53,26.6l-5.31-14.42h2.38l4,11.42h.15l4-11.42H113l-6.15,16.64c-.82,2.2-2.24,3.24-4.21,3.24a4.43,4.43,0,0,1-1.61-.26l.56-1.94c1.57.37,2.58.19,3.4-1.94Z"/><path d="M127.94,24.82l2.49,3.47H126.9l-1.43-2a8.6,8.6,0,0,1-2.89.49c-4.8,0-8.43-3.59-8.43-9.78s3.63-9.84,8.43-9.84S131,10.77,131,17C131,20.49,129.8,23.16,127.94,24.82Zm-3.54-4.69,1.4,1.94A7.49,7.49,0,0,0,127.28,17c0-4.51-2-6.51-4.7-6.51s-4.75,2-4.75,6.51,2,6.45,4.75,6.45a4.73,4.73,0,0,0,.93-.09l-2.33-3.22Z"/><path d="M139.5,19.36h-3.2V26.5h-3.68V7.41h7c4.52,0,6.72,2.38,6.72,5.93a5.58,5.58,0,0,1-3.21,5.32l4,7.84H143Zm-3.2-3.08h3.27c2.12,0,3.16-1,3.16-2.87,0-1.68-.92-2.9-3.07-2.9H136.3Z"/></svg>