<?xml version="1.0" encoding="UTF-8"?>
<svg id="Layer_1" data-name="Layer 1" xmlns="http://www.w3.org/2000/svg" xmlns:xlink="http://www.w3.org/1999/xlink" viewBox="0 0 1031.31 156.38">
  <defs>
    <style>
      .cls-1 {
        fill: none;
      }

      .cls-2 {
        fill: #231f20;
      }

      .cls-3 {
        fill: #fff;
      }

      .cls-4 {
        fill: #65bc46;
      }

      .cls-5 {
        clip-path: url(#clippath);
      }
    </style>
    <clipPath id="clippath">
      <path class="cls-1" d="M109.3,128.07c-11.56,0-21.13-3-28.44-8.91-7.57-6.12-12.03-14.7-13.25-25.49l-1.13-10.01h15.07c-1.17-1-2.24-2.05-3.21-3.18-4.66-5.38-7.03-12.07-7.03-19.87,0-6.54,1.63-12.37,4.86-17.33,3.21-4.95,7.73-8.77,13.44-11.36,5.29-2.4,11.44-3.62,18.26-3.62,5.16,0-99.38-4.01-99.16-9.66.23-6.08-1.99,132.14,1.51,135.15,6.88,5.93,118.25-17.3,119.15-7.72M114.4,97.28h0Z"/>
    </clipPath>
  </defs>
  <g>
    <g>
      <path class="cls-2" d="M192.96,122.74V30.35h39.01c6.59,0,12.32,1.11,17.19,3.34,4.88,2.22,8.62,5.35,11.23,9.37,2.61,4.02,3.91,8.73,3.91,14.11s-1.31,9.97-3.91,13.99c-2.61,4.02-6.35,7.14-11.23,9.37-4.88,2.22-10.61,3.34-17.19,3.34h-25.92v-12.7h25.41c5.39,0,9.51-1.24,12.38-3.72,2.86-2.48,4.3-5.9,4.3-10.27s-1.41-7.72-4.23-10.07c-2.82-2.35-6.97-3.53-12.45-3.53h-21.81v79.17h-16.68ZM245.83,122.74l-41.19-47.22h18.73l45.55,47.22h-23.1Z"/>
      <path class="cls-2" d="M304.73,124.02c-6.93,0-12.98-1.45-18.16-4.36-5.18-2.91-9.2-6.93-12.06-12.06-2.87-5.13-4.3-11.03-4.3-17.71s1.43-12.55,4.3-17.64c2.86-5.09,6.86-9.07,12-11.93,5.13-2.87,11.12-4.3,17.96-4.3s12.15,1.35,16.94,4.04c4.79,2.69,8.51,6.48,11.16,11.35,2.65,4.88,3.98,10.57,3.98,17.07,0,1.2-.04,2.31-.13,3.34-.09,1.03-.21,2.05-.38,3.08h-55.82v-11.29h43.37l-3.34,3.08c0-6.16-1.41-10.78-4.23-13.86-2.82-3.08-6.76-4.62-11.8-4.62-5.48,0-9.82,1.88-13.02,5.65-3.21,3.77-4.81,9.2-4.81,16.3s1.6,12.38,4.81,16.1c3.21,3.72,7.76,5.58,13.67,5.58,3.42,0,6.42-.64,8.98-1.92,2.57-1.28,4.45-3.25,5.65-5.9h15.27c-2.14,6.16-5.75,11.03-10.84,14.63-5.09,3.59-11.48,5.39-19.18,5.39Z"/>
      <path class="cls-2" d="M377.86,124.02c-6.59,0-12.38-1.45-17.39-4.36-5-2.91-8.94-6.95-11.8-12.12-2.87-5.17-4.3-11.05-4.3-17.64s1.43-12.42,4.3-17.51c2.86-5.09,6.8-9.09,11.8-12,5-2.91,10.8-4.36,17.39-4.36,5.39,0,10.26,1.01,14.63,3.01,4.36,2.01,7.96,4.83,10.78,8.47,2.82,3.64,4.62,7.85,5.39,12.64h-15.53c-.94-3.51-2.74-6.24-5.39-8.21-2.65-1.97-5.86-2.95-9.62-2.95-3.51,0-6.52.86-9.05,2.57-2.52,1.71-4.47,4.15-5.84,7.32-1.37,3.17-2.05,6.84-2.05,11.03s.68,8,2.05,11.16c1.37,3.17,3.34,5.63,5.9,7.38,2.57,1.75,5.56,2.63,8.98,2.63,3.76,0,6.97-.98,9.62-2.95,2.65-1.97,4.45-4.7,5.39-8.21h15.53c-.77,4.79-2.59,9.01-5.45,12.64-2.87,3.64-6.46,6.46-10.78,8.47-4.32,2.01-9.17,3.01-14.56,3.01Z"/>
      <path class="cls-2" d="M418.54,46.52v-17.84h17.58v17.84h-17.58ZM419.31,122.74V57.3h16.17v65.44h-16.17Z"/>
      <path class="cls-2" d="M490.01,124.02c-6.24,0-11.31-1.48-15.21-4.43-3.89-2.95-6.31-7.04-7.25-12.25l1.28-.13v41.83h-16.17V57.3h15.78v14.76l-1.28-.26c1.2-4.88,3.93-8.73,8.21-11.55,4.28-2.82,9.5-4.23,15.65-4.23,5.82,0,10.88,1.39,15.21,4.17,4.32,2.78,7.68,6.69,10.07,11.74,2.39,5.05,3.59,10.99,3.59,17.84s-1.24,12.96-3.72,18.09c-2.48,5.13-5.95,9.11-10.39,11.93-4.45,2.82-9.71,4.24-15.78,4.24ZM485.9,110.68c5.22,0,9.37-1.82,12.45-5.45,3.08-3.64,4.62-8.74,4.62-15.33s-1.56-11.68-4.68-15.27c-3.12-3.59-7.29-5.39-12.51-5.39s-9.28,1.82-12.45,5.45c-3.17,3.64-4.75,8.75-4.75,15.34s1.58,11.68,4.75,15.27c3.16,3.59,7.36,5.39,12.58,5.39Z"/>
      <path class="cls-2" d="M562.63,124.02c-6.93,0-12.98-1.45-18.16-4.36-5.18-2.91-9.2-6.93-12.06-12.06-2.87-5.13-4.3-11.03-4.3-17.71s1.43-12.55,4.3-17.64c2.86-5.09,6.86-9.07,12-11.93,5.13-2.87,11.12-4.3,17.96-4.3s12.15,1.35,16.94,4.04c4.79,2.69,8.51,6.48,11.16,11.35,2.65,4.88,3.98,10.57,3.98,17.07,0,1.2-.04,2.31-.13,3.34-.09,1.03-.21,2.05-.38,3.08h-55.82v-11.29h43.37l-3.34,3.08c0-6.16-1.41-10.78-4.23-13.86-2.82-3.08-6.76-4.62-11.8-4.62-5.48,0-9.82,1.88-13.02,5.65-3.21,3.77-4.81,9.2-4.81,16.3s1.6,12.38,4.81,16.1c3.21,3.72,7.76,5.58,13.67,5.58,3.42,0,6.42-.64,8.98-1.92,2.57-1.28,4.45-3.25,5.65-5.9h15.27c-2.14,6.16-5.75,11.03-10.84,14.63-5.09,3.59-11.48,5.39-19.18,5.39Z"/>
      <path class="cls-2" d="M604.33,122.74V30.35h30.8l25.66,89.05h-11.16l25.66-89.05h30.92v92.39h-19.5V35.87h3.34l-25.02,86.87h-20.4l-24.76-86.1h3.21v86.1h-18.73Z"/>
      <path class="cls-2" d="M738.68,124.02c-6.5,0-11.68-1.65-15.53-4.94-3.85-3.29-5.77-7.68-5.77-13.15,0-6.07,2.29-10.97,6.86-14.69s10.97-6.14,19.18-7.25l19.12-2.69v11.16l-15.91,2.44c-3.42.51-5.95,1.46-7.57,2.82-1.62,1.37-2.44,3.25-2.44,5.65,0,2.14.77,3.76,2.31,4.88,1.54,1.11,3.59,1.67,6.16,1.67,4.02,0,7.44-1.09,10.26-3.27,2.82-2.18,4.23-4.73,4.23-7.64l1.8,10.26c-1.88,4.88-4.75,8.56-8.6,11.04s-8.56,3.72-14.11,3.72ZM761.52,122.74c-.51-1.88-.88-3.89-1.09-6.03-.21-2.14-.32-4.62-.32-7.44h-.51v-30.92c0-2.65-.88-4.73-2.63-6.22-1.76-1.5-4.34-2.25-7.76-2.25s-5.84.56-7.76,1.67c-1.92,1.11-3.19,2.74-3.78,4.88h-18.35c.85-5.9,3.89-10.78,9.11-14.63,5.22-3.85,12.36-5.77,21.43-5.77s16.59,2.1,21.56,6.29c4.96,4.19,7.44,10.22,7.44,18.09v28.87c0,2.14.15,4.3.45,6.48s.79,4.51,1.48,6.99h-19.25Z"/>
      <path class="cls-2" d="M793.6,122.74V57.3h18.86v15.4h.39v50.04h-19.25ZM812.85,88.61l-1.67-15.52c1.54-5.56,4.06-9.8,7.57-12.7,3.51-2.91,7.87-4.36,13.09-4.36,1.62,0,2.82.17,3.59.51v17.96c-.43-.17-1.03-.28-1.8-.32-.77-.04-1.71-.06-2.82-.06-6.16,0-10.7,1.09-13.6,3.27-2.91,2.18-4.36,5.92-4.36,11.23Z"/>
      <path class="cls-2" d="M873.79,150.33c-9.07,0-16.45-1.92-22.13-5.77-5.69-3.85-9.05-9.07-10.07-15.65h18.22c.68,1.62,2.16,2.86,4.43,3.72,2.27.85,5.15,1.28,8.66,1.28,5.82,0,10.05-1.11,12.7-3.34,2.65-2.22,3.98-5.69,3.98-10.39v-14.24l1.03.26c-.86,4.79-3.34,8.58-7.44,11.35-4.1,2.78-9.2,4.17-15.27,4.17s-10.89-1.35-15.2-4.04c-4.32-2.69-7.68-6.48-10.07-11.35-2.4-4.88-3.59-10.61-3.59-17.19s1.24-12.49,3.72-17.45c2.48-4.96,5.97-8.81,10.46-11.55,4.49-2.74,9.73-4.1,15.72-4.1s11.18,1.46,15.08,4.36c3.89,2.91,6.18,6.89,6.86,11.93l-.9.13v-15.14h18.86v62.62c0,9.41-3.12,16.83-9.37,22.26-6.25,5.43-14.8,8.15-25.66,8.15ZM874.56,106.96c4.53,0,8.21-1.56,11.04-4.68,2.82-3.12,4.23-7.59,4.23-13.41s-1.43-10.29-4.3-13.41c-2.87-3.12-6.61-4.68-11.23-4.68s-8.11,1.58-10.97,4.75c-2.87,3.17-4.3,7.66-4.3,13.47s1.43,10.26,4.3,13.34c2.86,3.08,6.61,4.62,11.23,4.62Z"/>
      <path class="cls-2" d="M958.87,122.74V57.3h18.86v15.4h.39v50.04h-19.25ZM1004.42,122.74v-40.55c0-3.59-.92-6.29-2.76-8.08-1.84-1.8-4.51-2.7-8.02-2.7-2.99,0-5.67.69-8.02,2.05-2.35,1.37-4.19,3.25-5.52,5.65-1.33,2.4-1.99,5.22-1.99,8.47l-1.67-15.78c2.14-4.79,5.28-8.62,9.43-11.48,4.15-2.87,9.26-4.3,15.33-4.3,7.27,0,12.83,2.03,16.68,6.09,3.85,4.06,5.77,9.52,5.77,16.36v44.27h-19.25Z"/>
    </g>
    <polygon class="cls-2" points="908.9 57.3 933.88 27.78 933.88 27.78 958.87 57.3 908.9 57.3"/>
    <rect class="cls-2" x="924.26" y="45.11" width="19.25" height="78.91"/>
  </g>
  <g>
    <rect class="cls-4" x="2" width="159.25" height="156.38" rx="14.17" ry="14.17"/>
    <path class="cls-3" d="M133.45,80.23c-3.15-3.72-8.32-6.65-15.51-8.78l-13.63-4.09c-3.66-1.1-6.07-2.45-7.22-4.03-1.15-1.58-1.73-3.33-1.73-5.25,0-2.5,1.05-4.49,3.15-5.97,2.1-1.47,4.92-2.21,8.44-2.21,4.07,0,7.41.92,10.02,2.76,2.61,1.84,4.25,4.71,4.93,8.62h15.05c-.68-7.22-3.56-13.02-8.64-17.4-3.69-3.18-8.31-5.2-13.83-6.07v-11.45h-12.41v11.32c-3.2.44-6.12,1.25-8.75,2.44-4.14,1.88-7.34,4.57-9.61,8.07-2.27,3.5-3.41,7.64-3.41,12.43,0,5.6,1.61,10.26,4.83,13.98,3.22,3.72,8.32,6.65,15.31,8.78l13.63,4.09c3.32.96,5.66,2.23,7.02,3.81,1.36,1.58,2.03,3.67,2.03,6.24,0,2.73-1.14,4.9-3.41,6.52-2.27,1.62-5.51,2.43-9.71,2.43-5.15,0-9.39-1.23-12.71-3.7-3.32-2.47-5.22-5.84-5.7-10.11h-15.05c.95,8.4,4.27,14.9,9.97,19.5,4.17,3.37,9.36,5.49,15.56,6.4v11.56h12.41v-11.33c6.63-.68,12-2.71,16.07-6.13,5.08-4.27,7.63-10.39,7.63-18.34,0-5.67-1.58-10.37-4.73-14.09Z"/>
    <g class="cls-5">
      <g>
        <path class="cls-3" d="M39.47,92.06v11.14c11.08,4.99,24.33,7.69,38.29,7.69,15.82,0,30.75-3.47,42.61-9.81v-11.01c9.71-4.41,16.45-14.01,16.45-25.14,0-15.31-12.74-27.72-28.45-27.72-4.14,0-8.07.87-11.62,2.42-5.02-4.69-11.76-7.57-19.18-7.57s-13.96,2.79-18.96,7.36c-3.59-1.66-7.58-2.6-11.79-2.6-15.53,0-28.11,12.59-28.11,28.11,0,12.98,8.8,23.9,20.76,27.13h0Z"/>
        <path class="cls-3" d="M72.83,109.87c-13.77,0-22.02-2.49-33.36-7.13v11.85c0,4.68,7.26,8.47,16.21,8.47h48.47c8.96,0,16.21-3.79,16.21-8.47v-6.39c-12.24,5.87-25.21,5.7-40.77,5.7l-6.78-4.02Z"/>
      </g>
    </g>
  </g>
</svg>