<?xml version="1.0" encoding="UTF-8"?>
<svg id="Layer_1" data-name="Layer 1" xmlns="http://www.w3.org/2000/svg" viewBox="0 0 653.49 90.02">
  <defs>
    <style>
      .cls-1 {
        fill: #010101;
      }

      .cls-2 {
        fill: #231f20;
      }
    </style>
  </defs>
  <g>
    <path class="cls-1" d="M49.51,11.69v-3.12h2.98c1.64,0,2.98-1.33,2.98-2.98s-1.33-2.98-2.98-2.98h-11.9c-1.64,0-2.98,1.33-2.98,2.98s1.33,2.98,2.98,2.98h2.98v2.98C23.08,13.18,7.82,31.11,9.46,51.59c1.64,20.48,19.58,35.75,40.06,34.1,20.48-1.64,35.75-19.58,34.1-40.06-1.46-18.2-15.91-32.64-34.1-34.1v.15ZM46.54,79.98c-17.26,0-31.25-13.99-31.25-31.25s13.99-31.25,31.25-31.25,31.25,13.99,31.25,31.25c-.02,17.25-14,31.23-31.25,31.25Z"/>
    <path class="cls-1" d="M8.31,30.98c.58-.24,1.08-.65,1.43-1.17l3.19-4.99c.9-1.38.5-3.23-.88-4.13-1.38-.9-3.23-.5-4.13.88l-3.21,5.03c-.93,1.36-.58,3.21.77,4.14.06.04.13.08.19.12.81.45,1.79.49,2.64.12Z"/>
    <path class="cls-1" d="M45.79,61.43c-.2,0-.41-.01-.61-.04-1.37-.18-2.59-.94-3.36-2.08l-9.54-14.31c-1.46-2.19-.87-5.15,1.32-6.61,2.19-1.46,5.15-.87,6.61,1.32l6.5,9.75L85.54,14.95c1.97-1.75,4.98-1.57,6.73.4,1.75,1.97,1.57,4.98-.4,6.73l-42.92,38.15c-.88.78-2.01,1.2-3.17,1.2Z"/>
  </g>
  <g>
    <path class="cls-2" d="M140.66,82.53c-4.66,0-8.83-.87-12.5-2.62-3.67-1.75-6.62-4.18-8.85-7.3-2.23-3.12-3.62-6.77-4.17-10.95l9.87-1.85c.75,4.53,2.48,8.06,5.19,10.59,2.71,2.54,6.19,3.81,10.44,3.81,4.59,0,8.14-1.03,10.65-3.09,2.5-2.06,3.75-4.77,3.75-8.13,0-2.74-.7-4.92-2.11-6.53-1.41-1.61-3.26-2.9-5.55-3.86-2.3-.96-4.82-1.78-7.56-2.47-2.74-.68-5.5-1.44-8.28-2.26-2.78-.82-5.31-1.94-7.61-3.34-2.3-1.4-4.15-3.31-5.55-5.71-1.41-2.4-2.11-5.48-2.11-9.26,0-3.98.99-7.44,2.98-10.39,1.99-2.95,4.78-5.25,8.38-6.89,3.6-1.65,7.77-2.47,12.5-2.47,4.32,0,8.14.87,11.47,2.62,3.33,1.75,6.02,4,8.07,6.74,2.06,2.74,3.29,5.69,3.7,8.85l-9.57,2.47c-.69-3.77-2.31-6.79-4.89-9.05-2.57-2.26-5.68-3.39-9.31-3.39-2.54,0-4.83.41-6.89,1.23-2.06.82-3.7,2.04-4.94,3.65-1.23,1.61-1.85,3.72-1.85,6.33s.7,4.7,2.11,6.27c1.4,1.58,3.26,2.83,5.55,3.75,2.3.93,4.82,1.75,7.56,2.47,2.74.72,5.49,1.51,8.23,2.37,2.74.86,5.26,2.01,7.56,3.45,2.3,1.44,4.15,3.34,5.55,5.71,1.4,2.37,2.11,5.44,2.11,9.21,0,3.43-.91,6.67-2.73,9.72-1.82,3.05-4.51,5.54-8.07,7.46-3.57,1.92-7.96,2.88-13.17,2.88Z"/>
    <path class="cls-2" d="M196,82.53c-4.46,0-8.35-.98-11.67-2.93-3.33-1.95-5.9-4.71-7.71-8.28-1.82-3.57-2.73-7.82-2.73-12.76V25.34h9.36v30.96c0,5.76,1.46,10.2,4.37,13.32,2.91,3.12,6.67,4.68,11.26,4.68,3.09,0,5.85-.84,8.28-2.52,2.43-1.68,4.34-3.98,5.71-6.89,1.37-2.91,2.06-6.29,2.06-10.13l2.06,3.29c-.07,5.55-1.08,10.13-3.03,13.73-1.95,3.6-4.49,6.29-7.61,8.07-3.12,1.78-6.57,2.67-10.34,2.67ZM214.93,76.26V25.34h9.46v56.47h-3.91c-1.65,0-2.98-.51-4.01-1.54s-1.54-2.37-1.54-4.01Z"/>
    <path class="cls-2" d="M243.42,16.29c-1.99,0-3.7-.65-5.14-1.95-1.44-1.3-2.16-2.91-2.16-4.83s.7-3.63,2.11-4.94c1.41-1.3,3.14-1.95,5.19-1.95s3.7.65,5.14,1.95c1.44,1.3,2.16,2.95,2.16,4.94s-.72,3.53-2.16,4.83c-1.44,1.3-3.16,1.95-5.14,1.95ZM238.69,81.81V25.34h9.46v56.47h-9.46Z"/>
    <path class="cls-2" d="M280.55,82.53c-3.91,0-7.18-1.32-9.82-3.96-2.64-2.64-3.96-6.12-3.96-10.44v-34.97h-9.57v-7.82h31.99v7.82h-12.86v35.38c0,1.78.5,3.16,1.49,4.11.99.96,2.18,1.44,3.55,1.44,1.03,0,1.97-.19,2.83-.57.86-.38,1.66-.87,2.42-1.49l4.63,6.48c-1.44,1.3-3.05,2.3-4.83,2.98-1.78.68-3.74,1.03-5.86,1.03ZM262.24,29.46v-4.11c1.44,0,2.55-.39,3.34-1.18.79-.79,1.18-1.94,1.18-3.45v-9.46h9.57v7.82c0,.96-.19,1.89-.57,2.78-.38.89-.94,1.65-1.7,2.26-.76.62-1.65,1.03-2.67,1.23l-9.16,4.11Z"/>
    <path class="cls-2" d="M325.61,82.53c-4.39,0-8.42-.69-12.09-2.06-3.67-1.37-6.84-3.31-9.51-5.81-2.67-2.5-4.73-5.5-6.17-9s-2.16-7.41-2.16-11.73.81-8.16,2.42-11.73c1.61-3.56,3.81-6.67,6.58-9.31,2.78-2.64,5.97-4.68,9.57-6.12,3.6-1.44,7.35-2.16,11.26-2.16,3.5,0,6.69.46,9.57,1.39,2.88.93,5.36,2.21,7.46,3.86,2.09,1.65,3.7,3.53,4.83,5.66,1.13,2.13,1.7,4.46,1.7,7,0,3.57-.99,6.53-2.98,8.9-1.99,2.37-4.63,4.22-7.92,5.56-3.29,1.34-6.91,2.26-10.85,2.78-3.94.51-7.9.7-11.88.57-1.1,0-2.3-.03-3.6-.1-1.3-.07-2.5-.15-3.6-.26-1.1-.1-1.95-.19-2.57-.26.41,2.67,1.51,5.14,3.29,7.41,1.78,2.26,4.11,4.05,6.99,5.35,2.88,1.3,6.1,1.95,9.67,1.95,2.74,0,5.36-.48,7.87-1.44,2.5-.96,4.73-2.19,6.69-3.7,1.95-1.51,3.55-3.05,4.78-4.63l6.99,5.14c-1.78,2.47-4.01,4.66-6.69,6.58-2.67,1.92-5.66,3.43-8.95,4.53-3.29,1.1-6.86,1.65-10.7,1.65ZM315.63,52.5c2.74,0,5.52-.15,8.33-.46,2.81-.31,5.42-.82,7.82-1.54,2.4-.72,4.34-1.73,5.81-3.03,1.47-1.3,2.21-2.91,2.21-4.83s-.6-3.62-1.8-5.09c-1.2-1.47-2.85-2.64-4.94-3.5-2.09-.86-4.44-1.29-7.05-1.29-3.91,0-7.42.91-10.54,2.73-3.12,1.82-5.59,4.2-7.41,7.15-1.82,2.95-2.83,6.07-3.03,9.36,1.23.14,2.76.26,4.58.36,1.82.1,3.82.15,6.02.15Z"/>
    <path class="cls-2" d="M395.35,82.53c-5.21,0-10.03-.91-14.45-2.73-4.42-1.82-8.28-4.35-11.57-7.61-3.29-3.26-5.85-7.13-7.66-11.62-1.82-4.49-2.73-9.41-2.73-14.76s.93-10.25,2.78-14.71c1.85-4.46,4.42-8.31,7.71-11.57,3.29-3.26,7.15-5.78,11.57-7.56,4.42-1.78,9.21-2.67,14.35-2.67s10.13.91,14.56,2.73c4.42,1.82,8.21,4.44,11.37,7.87,3.15,3.43,5.49,7.58,6.99,12.45l-13.89,4.32c-1.65-4.73-4.1-8.31-7.35-10.75-3.26-2.43-7.12-3.65-11.57-3.65-4.18,0-7.9.98-11.16,2.93-3.26,1.95-5.81,4.68-7.66,8.18-1.85,3.5-2.78,7.65-2.78,12.45s.91,8.98,2.73,12.55c1.82,3.57,4.34,6.33,7.56,8.28,3.22,1.95,6.93,2.93,11.11,2.93s8.33-1.25,11.83-3.75c3.5-2.5,6.1-5.98,7.82-10.44l14.09,3.29c-1.51,5.08-3.94,9.4-7.3,12.96-3.36,3.57-7.3,6.27-11.83,8.13-4.53,1.85-9.36,2.78-14.5,2.78Z"/>
    <path class="cls-2" d="M438.24,66.49V5.7h14.5v59.87c0,1.51.45,2.64,1.34,3.39.89.76,1.95,1.13,3.19,1.13.89,0,1.65-.14,2.26-.41l2.67,11.01c-2.4,1.23-5.14,1.85-8.23,1.85-2.54,0-5.02-.53-7.46-1.6-2.44-1.06-4.42-2.78-5.97-5.14-1.54-2.37-2.31-5.47-2.31-9.31Z"/>
    <path class="cls-2" d="M496.36,82.53c-5.49,0-10.41-1.2-14.76-3.6-4.36-2.4-7.82-5.79-10.39-10.18-2.57-4.39-3.86-9.57-3.86-15.53s1.3-11.13,3.91-15.48c2.61-4.35,6.14-7.71,10.59-10.08,4.46-2.37,9.43-3.55,14.92-3.55s10.44,1.18,14.86,3.55,7.94,5.73,10.54,10.08c2.61,4.36,3.91,9.51,3.91,15.48s-1.32,11.14-3.96,15.53c-2.64,4.39-6.21,7.78-10.7,10.18-4.49,2.4-9.51,3.6-15.07,3.6ZM496.36,69.88c2.54,0,4.94-.6,7.2-1.8,2.26-1.2,4.11-3.05,5.55-5.56,1.44-2.5,2.16-5.61,2.16-9.31s-.7-6.79-2.11-9.26c-1.41-2.47-3.22-4.3-5.45-5.5-2.23-1.2-4.61-1.8-7.15-1.8s-4.89.6-7.05,1.8c-2.16,1.2-3.93,3.03-5.3,5.5-1.37,2.47-2.06,5.55-2.06,9.26s.65,6.81,1.95,9.31c1.3,2.5,3.03,4.36,5.19,5.56,2.16,1.2,4.51,1.8,7.05,1.8Z"/>
    <path class="cls-2" d="M562.08,82.53c-5.49,0-10.36-1.2-14.61-3.6-4.25-2.4-7.58-5.81-9.98-10.24-2.4-4.42-3.6-9.58-3.6-15.48s1.18-11.02,3.55-15.38c2.37-4.35,5.67-7.73,9.93-10.13,4.25-2.4,9.15-3.6,14.71-3.6,3.02,0,5.88.31,8.59.93,2.71.62,5.16,1.59,7.35,2.93,2.19,1.34,4.15,3.12,5.86,5.35,1.71,2.23,3.12,4.99,4.22,8.28l-13.99,4.42c-1.03-3.15-2.56-5.56-4.58-7.2-2.02-1.65-4.54-2.47-7.56-2.47-2.67,0-5.01.65-6.99,1.95-1.99,1.3-3.53,3.21-4.63,5.71-1.1,2.5-1.65,5.57-1.65,9.21s.55,6.72,1.65,9.26c1.1,2.54,2.64,4.47,4.63,5.81,1.99,1.34,4.32,2.01,6.99,2.01,3.5,0,6.29-1.01,8.38-3.04,2.09-2.02,3.51-4.61,4.27-7.77l14.09,3.29c-.89,3.5-2.49,6.75-4.78,9.77-2.3,3.02-5.23,5.44-8.79,7.25-3.57,1.82-7.92,2.73-13.06,2.73Z"/>
    <path class="cls-2" d="M597.37,81.81V5.7h14.5v42.17c3.43-.68,6.69-2.04,9.77-4.06,3.09-2.02,5.76-4.65,8.02-7.87,2.26-3.22,3.84-6.93,4.73-11.11h15.43c-1.1,4.39-2.86,8.47-5.3,12.24-2.44,3.77-5.26,7.06-8.49,9.88-3.22,2.81-6.58,4.9-10.08,6.27,2.67.76,5.35,2.04,8.02,3.86,2.67,1.82,5.18,4.01,7.51,6.58,2.33,2.57,4.32,5.4,5.97,8.49,1.65,3.09,2.74,6.31,3.29,9.67h-15.43c-.69-3.15-1.82-6.02-3.39-8.59-1.58-2.57-3.41-4.83-5.5-6.79-2.09-1.95-4.39-3.55-6.89-4.78-2.5-1.23-5.06-1.99-7.66-2.26v22.42h-14.5Z"/>
  </g>
</svg>